<svg xmlns="http://www.w3.org/2000/svg" xmlns:xlink="http://www.w3.org/1999/xlink" zoomAndPan="magnify" preserveAspectRatio="xMidYMid meet" version="1.2" viewBox="50.6 152.85 279.27 98.93"><defs/><g id="61fbf27275"><g style="fill:#000000;fill-opacity:1;"><g transform="translate(49.053774, 207.435125)"><path style="stroke:none" d="M 23.78125 1.171875 C 21.175781 1.171875 18.875 0.960938 16.875 0.546875 C 14.875 0.128906 13.109375 -0.425781 11.578125 -1.125 C 10.046875 -1.832031 8.734375 -2.625 7.640625 -3.5 C 6.546875 -4.382812 5.632812 -5.296875 4.90625 -6.234375 C 3.195312 -8.367188 2.082031 -10.835938 1.5625 -13.640625 L 18.328125 -13.640625 C 18.429688 -13.066406 18.691406 -12.546875 19.109375 -12.078125 C 19.460938 -11.671875 19.960938 -11.3125 20.609375 -11 C 21.265625 -10.6875 22.191406 -10.53125 23.390625 -10.53125 C 24.742188 -10.53125 25.664062 -10.6875 26.15625 -11 C 26.65625 -11.3125 26.90625 -11.671875 26.90625 -12.078125 C 26.90625 -12.804688 26.316406 -13.363281 25.140625 -13.75 C 23.972656 -14.144531 22.503906 -14.550781 20.734375 -14.96875 C 18.972656 -15.382812 17.0625 -15.863281 15 -16.40625 C 12.945312 -16.957031 11.035156 -17.75 9.265625 -18.78125 C 7.503906 -19.820312 6.039062 -21.175781 4.875 -22.84375 C 3.707031 -24.507812 3.125 -26.640625 3.125 -29.234375 C 3.125 -31.003906 3.507812 -32.679688 4.28125 -34.265625 C 5.0625 -35.847656 6.269531 -37.25 7.90625 -38.46875 C 9.550781 -39.695312 11.617188 -40.675781 14.109375 -41.40625 C 16.609375 -42.132812 19.570312 -42.5 23 -42.5 C 25.445312 -42.5 27.617188 -42.289062 29.515625 -41.875 C 31.410156 -41.457031 33.082031 -40.910156 34.53125 -40.234375 C 35.988281 -39.554688 37.25 -38.773438 38.3125 -37.890625 C 39.382812 -37.003906 40.285156 -36.117188 41.015625 -35.234375 C 42.722656 -33.160156 43.863281 -30.769531 44.4375 -28.0625 L 27.671875 -28.0625 C 27.515625 -28.53125 27.3125 -28.972656 27.0625 -29.390625 C 26.800781 -29.753906 26.445312 -30.078125 26 -30.359375 C 25.5625 -30.648438 24.953125 -30.796875 24.171875 -30.796875 C 23.179688 -30.796875 22.476562 -30.640625 22.0625 -30.328125 C 21.644531 -30.015625 21.4375 -29.648438 21.4375 -29.234375 C 21.4375 -28.554688 22.019531 -28.050781 23.1875 -27.71875 C 24.363281 -27.382812 25.832031 -27.019531 27.59375 -26.625 C 29.363281 -26.238281 31.273438 -25.769531 33.328125 -25.21875 C 35.378906 -24.675781 37.289062 -23.894531 39.0625 -22.875 C 40.832031 -21.863281 42.300781 -20.523438 43.46875 -18.859375 C 44.632812 -17.203125 45.21875 -15.070312 45.21875 -12.46875 C 45.21875 -10.707031 44.789062 -9.003906 43.9375 -7.359375 C 43.082031 -5.722656 41.78125 -4.269531 40.03125 -3 C 38.289062 -1.726562 36.066406 -0.71875 33.359375 0.03125 C 30.660156 0.789062 27.46875 1.171875 23.78125 1.171875 Z M 23.78125 1.171875 "/></g></g><g style="fill:#000000;fill-opacity:1;"><g transform="translate(95.836955, 207.435125)"><path style="stroke:none" d="M 19.5 1.171875 C 17.15625 1.171875 14.941406 0.691406 12.859375 -0.265625 C 10.785156 -1.234375 8.96875 -2.640625 7.40625 -4.484375 C 5.84375 -6.328125 4.609375 -8.597656 3.703125 -11.296875 C 2.796875 -14.003906 2.34375 -17.125 2.34375 -20.65625 C 2.34375 -24.144531 2.796875 -27.253906 3.703125 -29.984375 C 4.609375 -32.710938 5.84375 -35 7.40625 -36.84375 C 8.96875 -38.6875 10.785156 -40.085938 12.859375 -41.046875 C 14.941406 -42.015625 17.15625 -42.5 19.5 -42.5 C 21.675781 -42.5 23.519531 -42.144531 25.03125 -41.4375 C 26.539062 -40.738281 27.785156 -39.972656 28.765625 -39.140625 C 29.910156 -38.203125 30.847656 -37.109375 31.578125 -35.859375 L 32.359375 -35.859375 L 32.359375 -41.328125 L 50.296875 -41.328125 L 50.296875 0 L 32.359375 0 L 32.359375 -5.453125 L 31.578125 -5.453125 C 30.847656 -4.160156 29.910156 -3.046875 28.765625 -2.109375 C 27.785156 -1.273438 26.539062 -0.519531 25.03125 0.15625 C 23.519531 0.832031 21.675781 1.171875 19.5 1.171875 Z M 26.59375 -13.25 C 28.09375 -13.25 29.425781 -13.898438 30.59375 -15.203125 C 31.769531 -16.503906 32.359375 -18.320312 32.359375 -20.65625 C 32.359375 -23 31.769531 -24.816406 30.59375 -26.109375 C 29.425781 -27.410156 28.09375 -28.0625 26.59375 -28.0625 C 24.976562 -28.0625 23.582031 -27.410156 22.40625 -26.109375 C 21.238281 -24.816406 20.65625 -23 20.65625 -20.65625 C 20.65625 -18.320312 21.238281 -16.503906 22.40625 -15.203125 C 23.582031 -13.898438 24.976562 -13.25 26.59375 -13.25 Z M 26.59375 -13.25 "/></g><g transform="translate(149.637601, 207.435125)"><path style="stroke:none" d="M 3.515625 -54.578125 L 21.4375 -54.578125 L 21.4375 -12.078125 L 30.796875 -12.078125 L 30.796875 0 L 3.515625 0 Z M 3.515625 -54.578125 "/></g></g><g style="fill:#000000;fill-opacity:1;"><g transform="translate(181.216253, 207.435125)"><path style="stroke:none" d="M 25.734375 1.171875 C 22.191406 1.171875 18.96875 0.597656 16.0625 -0.546875 C 13.15625 -1.691406 10.660156 -3.25 8.578125 -5.21875 C 6.492188 -7.195312 4.867188 -9.507812 3.703125 -12.15625 C 2.535156 -14.8125 1.953125 -17.644531 1.953125 -20.65625 C 1.953125 -23.675781 2.535156 -26.507812 3.703125 -29.15625 C 4.867188 -31.8125 6.492188 -34.125 8.578125 -36.09375 C 10.660156 -38.070312 13.15625 -39.632812 16.0625 -40.78125 C 18.96875 -41.925781 22.191406 -42.5 25.734375 -42.5 C 29.210938 -42.5 32.421875 -41.925781 35.359375 -40.78125 C 38.296875 -39.632812 40.800781 -38.070312 42.875 -36.09375 C 44.957031 -34.125 46.582031 -31.8125 47.75 -29.15625 C 48.925781 -26.507812 49.515625 -23.675781 49.515625 -20.65625 L 49.515625 -19.5 L 20.265625 -19.5 C 20.265625 -16.53125 20.785156 -14.421875 21.828125 -13.171875 C 22.867188 -11.929688 24.171875 -11.3125 25.734375 -11.3125 C 26.722656 -11.3125 27.523438 -11.488281 28.140625 -11.84375 C 28.765625 -12.207031 29.285156 -12.597656 29.703125 -13.015625 C 30.171875 -13.535156 30.535156 -14.132812 30.796875 -14.8125 L 49.125 -14.8125 C 48.1875 -11.800781 46.703125 -9.125 44.671875 -6.78125 C 43.785156 -5.789062 42.757812 -4.816406 41.59375 -3.859375 C 40.425781 -2.898438 39.070312 -2.054688 37.53125 -1.328125 C 36 -0.597656 34.242188 0 32.265625 0.46875 C 30.296875 0.9375 28.117188 1.171875 25.734375 1.171875 Z M 30.796875 -24.5625 C 30.691406 -25.550781 30.429688 -26.460938 30.015625 -27.296875 C 29.648438 -27.960938 29.140625 -28.582031 28.484375 -29.15625 C 27.835938 -29.726562 26.921875 -30.015625 25.734375 -30.015625 C 24.535156 -30.015625 23.609375 -29.726562 22.953125 -29.15625 C 22.304688 -28.582031 21.800781 -27.960938 21.4375 -27.296875 C 21.019531 -26.460938 20.757812 -25.550781 20.65625 -24.5625 Z M 30.796875 -24.5625 "/></g></g><g style="fill:#000000;fill-opacity:1;"><g transform="translate(232.677756, 207.435125)"><path style="stroke:none" d="M 3.515625 -41.328125 L 21.4375 -41.328125 L 21.4375 -35.46875 L 22.21875 -35.46875 C 23 -36.769531 23.988281 -37.941406 25.1875 -38.984375 C 26.226562 -39.867188 27.488281 -40.675781 28.96875 -41.40625 C 30.445312 -42.132812 32.226562 -42.5 34.3125 -42.5 C 36.539062 -42.5 38.4375 -42.132812 40 -41.40625 C 41.5625 -40.675781 42.804688 -39.867188 43.734375 -38.984375 C 44.828125 -37.941406 45.710938 -36.769531 46.390625 -35.46875 L 47.171875 -35.46875 C 47.898438 -36.769531 48.835938 -37.941406 49.984375 -38.984375 C 50.960938 -39.867188 52.207031 -40.675781 53.71875 -41.40625 C 55.226562 -42.132812 57.070312 -42.5 59.25 -42.5 C 63.976562 -42.5 67.691406 -41.082031 70.390625 -38.25 C 73.097656 -35.414062 74.453125 -31.242188 74.453125 -25.734375 L 74.453125 0 L 56.53125 0 L 56.53125 -22.609375 C 56.53125 -24.378906 56.175781 -25.664062 55.46875 -26.46875 C 54.769531 -27.269531 53.820312 -27.671875 52.625 -27.671875 C 51.175781 -27.671875 50.035156 -27.203125 49.203125 -26.265625 C 48.367188 -25.335938 47.953125 -23.859375 47.953125 -21.828125 L 47.953125 0 L 30.015625 0 L 30.015625 -22.609375 C 30.015625 -24.378906 29.660156 -25.664062 28.953125 -26.46875 C 28.253906 -27.269531 27.3125 -27.671875 26.125 -27.671875 C 24.664062 -27.671875 23.519531 -27.203125 22.6875 -26.265625 C 21.851562 -25.335938 21.4375 -23.859375 21.4375 -21.828125 L 21.4375 0 L 3.515625 0 Z M 3.515625 -41.328125 "/></g></g><g style="fill:#000000;fill-opacity:1;"><g transform="translate(240.045896, 250.744077)"><path style="stroke:none" d="M 66.9375 -45.125 C 66.875 -38.300781 65.890625 -32.265625 63.984375 -27.015625 C 62.085938 -21.773438 59.296875 -17.25 55.609375 -13.4375 C 56.710938 -9.144531 57.265625 -4.664062 57.265625 0 L 40.796875 0 C 40.910156 -3.132812 40.644531 -6.3125 40 -9.53125 C 39.363281 -12.75 38.367188 -15.722656 37.015625 -18.453125 C 35.660156 -21.191406 33.984375 -23.40625 31.984375 -25.09375 C 29.992188 -26.78125 27.679688 -27.625 25.046875 -27.625 C 22.398438 -27.625 20.265625 -26.960938 18.640625 -25.640625 C 17.015625 -24.328125 16.203125 -22.59375 16.203125 -20.4375 C 16.203125 -18.351562 17.015625 -16.632812 18.640625 -15.28125 C 20.265625 -13.9375 22.398438 -13.265625 25.046875 -13.265625 C 28.484375 -13.265625 31.953125 -14.273438 35.453125 -16.296875 C 36.304688 -14.453125 37.007812 -12.316406 37.5625 -9.890625 C 38.113281 -7.472656 38.484375 -5.066406 38.671875 -2.671875 C 33.453125 -0.703125 28.753906 0.28125 24.578125 0.28125 C 20.222656 0.28125 16.328125 -0.65625 12.890625 -2.53125 C 9.453125 -4.40625 6.75 -6.859375 4.78125 -9.890625 C 2.820312 -12.929688 1.84375 -16.234375 1.84375 -19.796875 C 1.84375 -22.492188 2.425781 -25.101562 3.59375 -27.625 C 4.757812 -30.144531 6.382812 -32.414062 8.46875 -34.4375 C 10.5625 -36.457031 13.003906 -38.066406 15.796875 -39.265625 C 18.585938 -40.460938 21.609375 -41.0625 24.859375 -41.0625 C 29.773438 -41.0625 34.164062 -40.03125 38.03125 -37.96875 C 41.894531 -35.914062 45.207031 -33.144531 47.96875 -29.65625 C 48.832031 -32.101562 49.234375 -34.675781 49.171875 -37.375 C 49.109375 -40.082031 49.109375 -42.664062 49.171875 -45.125 Z M 66.9375 -45.125 "/></g></g><g style="fill:#000000;fill-opacity:1;"><g transform="translate(303.957846, 257.163222)"><path style="stroke:none" d="M 15.984375 -45.890625 C 14.191406 -45.890625 12.554688 -46.335938 11.078125 -47.234375 C 9.597656 -48.128906 8.410156 -49.328125 7.515625 -50.828125 C 6.617188 -52.335938 6.171875 -53.992188 6.171875 -55.796875 C 6.171875 -57.648438 6.617188 -59.3125 7.515625 -60.78125 C 8.410156 -62.257812 9.597656 -63.445312 11.078125 -64.34375 C 12.554688 -65.25 14.191406 -65.703125 15.984375 -65.703125 C 17.835938 -65.703125 19.503906 -65.25 20.984375 -64.34375 C 22.460938 -63.445312 23.648438 -62.257812 24.546875 -60.78125 C 25.441406 -59.3125 25.890625 -57.648438 25.890625 -55.796875 C 25.890625 -53.992188 25.441406 -52.335938 24.546875 -50.828125 C 23.648438 -49.328125 22.460938 -48.128906 20.984375 -47.234375 C 19.503906 -46.335938 17.835938 -45.890625 15.984375 -45.890625 Z M 4.265625 -5.390625 C 3.453125 -10.722656 3.085938 -16.097656 3.171875 -21.515625 C 3.253906 -26.929688 3.644531 -32.910156 4.34375 -39.453125 L 17.8125 -39.453125 C 17.175781 -32.796875 17.175781 -26.695312 17.8125 -21.15625 C 18.445312 -15.625 19.550781 -10.367188 21.125 -5.390625 Z M 4.265625 -5.390625 "/></g></g></g></svg>