<svg xmlns="http://www.w3.org/2000/svg" version="1.1" xmlns:xlink="http://www.w3.org/1999/xlink" width="1000" height="1000"><g clip-path="url(#SvgjsClipPath1142)"><rect width="1000" height="1000" fill="#ffffff"></rect><g transform="matrix(1.6552180749813787,0,0,1.6552180749813787,248.11718943970868,100.00000000000003)"><svg xmlns="http://www.w3.org/2000/svg" version="1.1" xmlns:xlink="http://www.w3.org/1999/xlink" width="304.35" height="483.32"><svg xmlns="http://www.w3.org/2000/svg" xmlns:xlink="http://www.w3.org/1999/xlink" zoomAndPan="magnify" preserveAspectRatio="xMidYMid meet" version="1.2" viewBox="252.98 265.98 304.35 483.32"><defs><clipPath id="SvgjsClipPath1142"><rect width="1000" height="1000" x="0" y="0" rx="300" ry="300"></rect></clipPath></defs><g id="5d9f770ecc"><g style="fill:#000000;fill-opacity:1;"><g transform="translate(469.870502, 780.390632)"><path style="stroke:none" d="M -58.75 -307.6875 C -34.539062 -297.070312 -14.53125 -284.363281 1.28125 -269.5625 C 17.101562 -254.757812 28.988281 -237.882812 36.9375 -218.9375 C 53.957031 -216.320312 70.789062 -211.453125 87.4375 -204.328125 L 62.28125 -145.53125 C 51.300781 -150.738281 39.570312 -154.648438 27.09375 -157.265625 C 14.613281 -159.890625 2.46875 -160.878906 -9.34375 -160.234375 C -21.15625 -159.585938 -31.59375 -156.992188 -40.65625 -152.453125 C -49.726562 -147.910156 -56.28125 -140.929688 -60.3125 -131.515625 C -64.34375 -122.109375 -65.242188 -113.492188 -63.015625 -105.671875 C -60.785156 -97.847656 -55.835938 -92.296875 -48.171875 -89.015625 C -40.722656 -85.828125 -33.347656 -86.109375 -26.046875 -89.859375 C -18.753906 -93.609375 -13.09375 -100.1875 -9.0625 -109.59375 C -3.8125 -121.863281 -2.128906 -135.785156 -4.015625 -151.359375 C 3.859375 -151.609375 12.539062 -150.867188 22.03125 -149.140625 C 31.53125 -147.410156 40.691406 -145.046875 49.515625 -142.046875 C 48.554688 -120.429688 44.890625 -102.179688 38.515625 -87.296875 C 31.859375 -71.734375 22.566406 -59.25 10.640625 -49.84375 C -1.273438 -40.445312 -14.148438 -34.5625 -27.984375 -32.1875 C -41.828125 -29.8125 -55.101562 -31.347656 -67.8125 -36.796875 C -77.445312 -40.910156 -85.863281 -46.96875 -93.0625 -54.96875 C -100.257812 -62.976562 -105.878906 -72.253906 -109.921875 -82.796875 C -113.960938 -93.335938 -115.984375 -104.503906 -115.984375 -116.296875 C -115.992188 -128.085938 -113.515625 -139.785156 -108.546875 -151.390625 C -101.046875 -168.910156 -90.675781 -183 -77.4375 -193.65625 C -64.195312 -204.3125 -49.226562 -211.894531 -32.53125 -216.40625 C -39.976562 -223.21875 -48.566406 -228.578125 -58.296875 -232.484375 C -68.023438 -236.398438 -77.21875 -240.335938 -85.875 -244.296875 Z M -58.75 -307.6875 "></path></g></g><g style="fill:#000000;fill-opacity:1;"><g transform="translate(344.300828, 234.137278)"><path style="stroke:none" d="M 52.890625 308.765625 C 28.890625 297.679688 9.125 284.585938 -6.40625 269.484375 C -21.9375 254.378906 -33.503906 237.28125 -41.109375 218.1875 C -58.066406 215.25 -74.800781 210.0625 -91.3125 202.625 L -65.03125 144.3125 C -54.15625 149.726562 -42.503906 153.867188 -30.078125 156.734375 C -17.648438 159.597656 -5.523438 160.816406 6.296875 160.390625 C 18.117188 159.972656 28.601562 157.578125 37.75 153.203125 C 46.90625 148.828125 53.582031 141.972656 57.78125 132.640625 C 61.988281 123.304688 63.054688 114.710938 60.984375 106.859375 C 58.910156 99.003906 54.078125 93.363281 46.484375 89.9375 C 39.085938 86.601562 31.703125 86.738281 24.328125 90.34375 C 16.960938 93.945312 11.175781 100.414062 6.96875 109.75 C 1.488281 121.914062 -0.445312 135.800781 1.15625 151.40625 C -6.738281 151.5 -15.414062 150.59375 -24.875 148.6875 C -34.332031 146.78125 -43.445312 144.242188 -52.21875 141.078125 C -50.851562 119.492188 -46.84375 101.316406 -40.1875 86.546875 C -33.226562 71.117188 -23.695312 58.816406 -11.59375 49.640625 C 0.507812 40.460938 13.5 34.820312 27.375 32.71875 C 41.257812 30.613281 54.503906 32.398438 67.109375 38.078125 C 76.660156 42.390625 84.957031 48.613281 92 56.75 C 99.039062 64.882812 104.476562 74.257812 108.3125 84.875 C 112.15625 95.488281 113.96875 106.6875 113.75 118.46875 C 113.53125 130.257812 110.828125 141.910156 105.640625 153.421875 C 97.804688 170.796875 87.171875 184.6875 73.734375 195.09375 C 60.304688 205.5 45.195312 212.796875 28.40625 216.984375 C 35.726562 223.941406 44.210938 229.46875 53.859375 233.5625 C 63.515625 237.65625 72.640625 241.769531 81.234375 245.90625 Z M 52.890625 308.765625 "></path></g></g></g></svg></svg></g></g></svg>